C:\Users\febre\Documents\GitHub\PredSim-workshop-bcn-2024\S4 Modelling neuromusculoskeletal deficits\Code\Example 3 - Motor control\Results\BCN_CP1\BCN_CP1_v1.mot
version=1
nRows=18
nColumns=29
inDegrees=yes
endheader
                time	         pelvis_tilt	           pelvis_tx	           pelvis_ty	       hip_flexion_l	       hip_flexion_r	        knee_angle_l	        knee_angle_r	       ankle_angle_l	       ankle_angle_r	    lumbar_extension	hamstrings_r/activation	bifemsh_r/activation	glut_max_r/activation	iliopsoas_r/activation	rect_fem_r/activation	  vasti_r/activation	gastroc_r/activation	 soleus_r/activation	tib_ant_r/activation	hamstrings_l/activation	bifemsh_l/activation	glut_max_l/activation	iliopsoas_l/activation	rect_fem_l/activation	  vasti_l/activation	gastroc_l/activation	 soleus_l/activation	tib_ant_l/activation	
          0.96135132	         -9.62040764	          1.18635126	          0.90506972	         -7.50136593	         19.43246966	        -20.58684666	          2.17361975	         -3.53074694	         -2.57127525	          2.64702919	          0.17856091	          0.19973448	          0.30089258	          0.05760915	          0.07252430	          0.05717616	          0.13472186	          0.08214280	          0.30972457	          0.05000000	          0.05000017	          0.05000001	          0.63484815	          0.05000001	          0.06730613	          0.19193181	          0.18352425	          0.05000011	
          0.97096484	         -9.53376972	          1.20176365	          0.90280175	         -6.50664518	         19.11574980	        -23.90410213	          1.20760182	         -5.28733799	         -2.71155128	          2.96561899	          0.16945418	          0.18812559	          0.29190769	          0.05135625	          0.06613213	          0.05338338	          0.12594896	          0.07079904	          0.29732701	          0.08043831	          0.22334115	          0.06587865	          0.54717689	          0.08557666	          0.05801126	          0.16542635	          0.15817985	          0.25890378	
          0.98057835	         -9.43700103	          1.21703135	          0.90018683	         -5.23787646	         18.74387324	        -27.67690721	         -0.15454516	         -6.76659480	         -2.48792888	          3.25507051	          0.16869813	          0.18314446	          0.28959164	          0.05000000	          0.06250661	          0.05000024	          0.11676413	          0.06102181	          0.30045359	          0.06932994	          0.19249812	          0.05678093	          0.47161266	          0.07375873	          0.05000001	          0.14258125	          0.13633547	          0.22314960	
          0.99019186	         -9.33848050	          1.23192214	          0.89761066	         -3.78004287	         18.29275953	        -31.64102215	         -1.39043194	         -6.94624523	         -1.80842088	          3.49479246	          0.16054881	          0.21427709	          0.27422912	          0.05427193	          0.05387455	          0.05209075	          0.16812136	          0.12094695	          0.25896144	          0.07430214	          0.22432193	          0.05941374	          0.40648373	          0.07778316	          0.05000000	          0.12289101	          0.11750776	          0.26336260	
          0.99980538	         -9.24520444	          1.24622826	          0.89582370	         -2.15861080	         17.81673432	        -35.57540570	         -2.59804049	         -6.66100836	         -0.29337141	          3.66574896	          0.14463766	          0.21437437	          0.24458023	          0.05715471	          0.05000000	          0.05000001	          0.18120750	          0.13922663	          0.22319929	          0.07246511	          0.23088451	          0.05969622	          0.35034899	          0.07621232	          0.05000000	          0.10591999	          0.10128014	          0.27356112	
          1.00941889	         -9.16111825	          1.25987868	          0.89520565	         -0.41404427	         17.33940147	        -39.31597706	         -3.67688826	         -6.18996873	          0.98025615	          3.76391711	          0.13003219	          0.22165663	          0.21311940	          0.06778961	          0.05171252	          0.05000115	          0.20398941	          0.17214139	          0.19237583	          0.06651685	          0.21711354	          0.05571120	          0.30196644	          0.07009748	          0.05000000	          0.09219367	          0.08729352	          0.25858717	
          1.01903240	         -9.08228553	          1.27295945	          0.89563076	          1.39410222	         16.88596192	        -42.77025753	         -4.68203010	         -5.50299491	          1.93146508	          3.79666713	          0.11721874	          0.22804894	          0.18641413	          0.08048401	          0.05939945	          0.05173904	          0.22449101	          0.20022207	          0.16580905	          0.06150079	          0.20754181	          0.05300389	          0.26026557	          0.06489110	          0.05000000	          0.07946241	          0.07523843	          0.24640946	
          1.02864591	         -9.00564903	          1.28560730	          0.89678127	          3.21820036	         16.44609843	        -45.89374311	         -5.61796602	         -4.69559253	          2.57565552	          3.77867183	          0.10764415	          0.23450643	          0.16710709	          0.08724137	          0.06078993	          0.05242005	          0.24107057	          0.22277667	          0.14291109	          0.05631624	          0.19224969	          0.05000003	          0.23522738	          0.05954580	          0.05000000	          0.07021607	          0.06484814	          0.22937448	
          1.03825943	         -8.92963284	          1.29793382	          0.89836318	          5.02889274	         15.99607622	        -48.67707589	         -6.46320158	         -3.79082048	          2.96961499	          3.72262867	          0.10032805	          0.24254539	          0.15286929	          0.09215206	          0.05852629	          0.05201427	          0.25386361	          0.24095195	          0.12317531	          0.05316436	          0.18449689	          0.05000000	          0.21746192	          0.05638533	          0.05000000	          0.06297171	          0.05819857	          0.21903280	
          1.04787294	         -8.85330649	          1.31000987	          0.90017278	          6.81201904	         15.51800847	        -51.12534696	         -7.20119373	         -2.85435166	          3.17059773	          3.63644742	          0.09445216	          0.24728352	          0.14191611	          0.09280911	          0.05428974	          0.05090605	          0.26486071	          0.25485770	          0.10616501	          0.05144056	          0.17953866	          0.05000000	          0.20742747	          0.05459729	          0.05000000	          0.05945279	          0.05516239	          0.21398333	
          1.05748645	         -8.77667722	          1.32187470	          0.90208285	          8.56307205	         15.00405002	        -53.25160862	         -7.82754044	         -1.92807670	          3.22603182	          3.52489191	          0.08941418	          0.25155620	          0.13248858	          0.09339817	          0.05071793	          0.05000005	          0.27458730	          0.26710796	          0.09150381	          0.05128551	          0.17926062	          0.05000000	          0.19683011	          0.05419020	          0.05000000	          0.05813467	          0.05391102	          0.21382217	
          1.06709997	         -8.70018778	          1.33354923	          0.90401663	         10.28129342	         14.45376734	        -55.07126718	         -8.34723488	         -1.01933983	          3.17147254	          3.39074816	          0.08515451	          0.25403937	          0.12242647	          0.09359510	          0.05000010	          0.05000004	          0.28230233	          0.27749998	          0.07886730	          0.05113379	          0.17888808	          0.05000000	          0.18630265	          0.05377347	          0.05000000	          0.05690898	          0.05274739	          0.21353896	
          1.07671348	         -8.62465381	          1.34504658	          0.90592784	         11.96583068	         13.87023535	        -56.59681421	         -8.76904114	         -0.11875928	          3.03327860	          3.23615921	          0.08178020	          0.25544562	          0.11406283	          0.09456928	          0.05000008	          0.05000003	          0.28781442	          0.28513639	          0.06797588	          0.05102187	          0.17909462	          0.05000000	          0.17927626	          0.05355347	          0.05000000	          0.05569606	          0.05159593	          0.21393151	
          1.08632699	         -8.55065918	          1.35637695	          0.90778804	         13.61507327	         13.25773692	        -57.83825081	         -9.10367290	          0.77432402	          2.83269992	          3.06260331	          0.07835387	          0.25627019	          0.10730734	          0.09655240	          0.05000008	          0.05000003	          0.29190721	          0.29101066	          0.05858856	          0.05092588	          0.17917911	          0.05000000	          0.17310791	          0.05334796	          0.05000000	          0.05471525	          0.05066482	          0.21415241	
          1.09594051	         -8.47861474	          1.36754982	          0.90957851	         15.22668926	         12.62098824	        -58.80409428	         -9.36232569	          1.64917568	          2.58619786	          2.87128612	          0.07390164	          0.25447453	          0.10084132	          0.09822932	          0.05000010	          0.05000003	          0.29328174	          0.29438657	          0.05049946	          0.05084650	          0.17907564	          0.05000000	          0.16773816	          0.05314640	          0.05000000	          0.05401506	          0.05000012	          0.21411852	
          1.10555402	         -8.40915300	          1.37857557	          0.91128441	         16.79804605	         11.96447208	        -59.50273946	         -9.55598025	          2.49211733	          2.31327954	          2.66385447	          0.07378715	          0.25523528	          0.09848494	          0.09872869	          0.05025885	          0.05000003	          0.29445794	          0.29572898	          0.05000010	          0.05095667	          0.18061334	          0.05000001	          0.17649284	          0.05365581	          0.05000000	          0.05399977	          0.05000004	          0.21591353	
          1.11516753	         -8.34225243	          1.38946558	          0.91288837	         18.32787197	         11.29177029	        -59.94834934	         -9.69673564	          3.30076800	          2.03795609	          2.44143391	          0.07376499	          0.25595483	          0.09831602	          0.09914897	          0.05047630	          0.05000004	          0.29549472	          0.29687928	          0.05000005	          0.05106207	          0.18231591	          0.05000001	          0.18682533	          0.05557405	          0.05000001	          0.05317682	          0.05000005	          0.21790856	
          1.12478105	         -8.27788375	          1.40023182	          0.91437455	         19.81604898	         10.60578805	        -60.15826804	         -9.79318557	          4.08853315	          1.76658361	          2.20533585	          0.07307762	          0.25554135	          0.09703264	          0.09933084	          0.05057339	          0.05000005	          0.29551458	          0.29718843	          0.05000006	          0.05122520	          0.18410265	          0.05000001	          0.19564276	          0.05679956	          0.05000001	          0.05203085	          0.05000005	          0.21997805	
